<mxfile host="app.diagrams.net" modified="2023-11-14T14:46:07.553Z" agent="Mozilla/5.0 (Windows NT 10.0; Win64; x64) AppleWebKit/537.36 (KHTML, like Gecko) Chrome/112.0.0.0 Safari/537.36" etag="jSgKP-hvUN-skc6wn3sh" version="22.1.0" type="device" pages="2">
  <diagram name="Page-1" id="Vcl6vUDAi4lidY2ig-dH">
    <mxGraphModel dx="676" dy="563" grid="1" gridSize="10" guides="1" tooltips="1" connect="1" arrows="1" fold="1" page="1" pageScale="1" pageWidth="827" pageHeight="1169" math="0" shadow="0">
      <root>
        <mxCell id="0" />
        <mxCell id="1" parent="0" />
        <mxCell id="5GwjnMJBXJCPQI6X2M8O-1" value="Teacher" style="shape=umlActor;verticalLabelPosition=bottom;verticalAlign=top;html=1;outlineConnect=0;" parent="1" vertex="1">
          <mxGeometry x="10" y="325" width="50" height="70" as="geometry" />
        </mxCell>
        <mxCell id="5GwjnMJBXJCPQI6X2M8O-4" value="" style="rounded=0;whiteSpace=wrap;html=1;" parent="1" vertex="1">
          <mxGeometry x="100" y="20" width="800" height="670" as="geometry" />
        </mxCell>
        <mxCell id="5GwjnMJBXJCPQI6X2M8O-5" value="&lt;font style=&quot;font-size: 14px;&quot;&gt;Censor the topic&lt;/font&gt;" style="ellipse;whiteSpace=wrap;html=1;" parent="1" vertex="1">
          <mxGeometry x="140" y="320" width="120" height="80" as="geometry" />
        </mxCell>
        <mxCell id="5GwjnMJBXJCPQI6X2M8O-6" value="Login" style="ellipse;whiteSpace=wrap;html=1;" parent="1" vertex="1">
          <mxGeometry x="340" y="90" width="120" height="80" as="geometry" />
        </mxCell>
        <mxCell id="5GwjnMJBXJCPQI6X2M8O-7" value="Browse topic" style="ellipse;whiteSpace=wrap;html=1;" parent="1" vertex="1">
          <mxGeometry x="340" y="230" width="120" height="80" as="geometry" />
        </mxCell>
        <mxCell id="5GwjnMJBXJCPQI6X2M8O-8" value="Cancel topic" style="ellipse;whiteSpace=wrap;html=1;" parent="1" vertex="1">
          <mxGeometry x="340" y="400" width="120" height="80" as="geometry" />
        </mxCell>
        <mxCell id="5GwjnMJBXJCPQI6X2M8O-9" value="Confirm" style="ellipse;whiteSpace=wrap;html=1;" parent="1" vertex="1">
          <mxGeometry x="550" y="400" width="120" height="80" as="geometry" />
        </mxCell>
        <mxCell id="5GwjnMJBXJCPQI6X2M8O-10" value="Enter dates for the stages" style="ellipse;whiteSpace=wrap;html=1;" parent="1" vertex="1">
          <mxGeometry x="550" y="230" width="120" height="80" as="geometry" />
        </mxCell>
        <mxCell id="5GwjnMJBXJCPQI6X2M8O-11" value="Confirm" style="ellipse;whiteSpace=wrap;html=1;" parent="1" vertex="1">
          <mxGeometry x="760" y="230" width="120" height="80" as="geometry" />
        </mxCell>
        <mxCell id="5GwjnMJBXJCPQI6X2M8O-12" value="View topic description" style="ellipse;whiteSpace=wrap;html=1;" parent="1" vertex="1">
          <mxGeometry x="340" y="545" width="120" height="80" as="geometry" />
        </mxCell>
        <mxCell id="5GwjnMJBXJCPQI6X2M8O-14" value="&amp;lt;&amp;lt;include&amp;gt;&amp;gt;" style="html=1;verticalAlign=bottom;labelBackgroundColor=none;endArrow=open;endFill=0;dashed=1;rounded=0;exitX=1;exitY=0.5;exitDx=0;exitDy=0;" parent="1" source="5GwjnMJBXJCPQI6X2M8O-8" target="5GwjnMJBXJCPQI6X2M8O-9" edge="1">
          <mxGeometry width="160" relative="1" as="geometry">
            <mxPoint x="290" y="330" as="sourcePoint" />
            <mxPoint x="450" y="330" as="targetPoint" />
          </mxGeometry>
        </mxCell>
        <mxCell id="5GwjnMJBXJCPQI6X2M8O-15" value="&amp;lt;&amp;lt;include&amp;gt;&amp;gt;" style="html=1;verticalAlign=bottom;labelBackgroundColor=none;endArrow=open;endFill=0;dashed=1;rounded=0;entryX=0;entryY=0.5;entryDx=0;entryDy=0;" parent="1" target="5GwjnMJBXJCPQI6X2M8O-11" edge="1">
          <mxGeometry width="160" relative="1" as="geometry">
            <mxPoint x="670" y="270" as="sourcePoint" />
            <mxPoint x="690" y="269.40999999999997" as="targetPoint" />
          </mxGeometry>
        </mxCell>
        <mxCell id="5GwjnMJBXJCPQI6X2M8O-16" value="&amp;lt;&amp;lt;include&amp;gt;&amp;gt;" style="html=1;verticalAlign=bottom;labelBackgroundColor=none;endArrow=open;endFill=0;dashed=1;rounded=0;entryX=0;entryY=1;entryDx=0;entryDy=0;" parent="1" target="5GwjnMJBXJCPQI6X2M8O-6" edge="1">
          <mxGeometry width="160" relative="1" as="geometry">
            <mxPoint x="200" y="320" as="sourcePoint" />
            <mxPoint x="290" y="320" as="targetPoint" />
          </mxGeometry>
        </mxCell>
        <mxCell id="5GwjnMJBXJCPQI6X2M8O-17" value="&amp;lt;&amp;lt;extend&amp;gt;&amp;gt;" style="html=1;verticalAlign=bottom;labelBackgroundColor=none;endArrow=open;endFill=0;dashed=1;rounded=0;exitX=0;exitY=0.5;exitDx=0;exitDy=0;" parent="1" source="5GwjnMJBXJCPQI6X2M8O-7" target="5GwjnMJBXJCPQI6X2M8O-5" edge="1">
          <mxGeometry width="160" relative="1" as="geometry">
            <mxPoint x="290" y="330" as="sourcePoint" />
            <mxPoint x="450" y="330" as="targetPoint" />
          </mxGeometry>
        </mxCell>
        <mxCell id="5GwjnMJBXJCPQI6X2M8O-18" value="&amp;lt;&amp;lt;extend&amp;gt;&amp;gt;" style="html=1;verticalAlign=bottom;labelBackgroundColor=none;endArrow=open;endFill=0;dashed=1;rounded=0;entryX=1;entryY=1;entryDx=0;entryDy=0;exitX=0;exitY=0.5;exitDx=0;exitDy=0;" parent="1" source="5GwjnMJBXJCPQI6X2M8O-8" target="5GwjnMJBXJCPQI6X2M8O-5" edge="1">
          <mxGeometry width="160" relative="1" as="geometry">
            <mxPoint x="368" y="308" as="sourcePoint" />
            <mxPoint x="262" y="350" as="targetPoint" />
          </mxGeometry>
        </mxCell>
        <mxCell id="5GwjnMJBXJCPQI6X2M8O-19" value="&amp;lt;&amp;lt;extend&amp;gt;&amp;gt;" style="html=1;verticalAlign=bottom;labelBackgroundColor=none;endArrow=open;endFill=0;dashed=1;rounded=0;entryX=0.5;entryY=1;entryDx=0;entryDy=0;exitX=0;exitY=0.5;exitDx=0;exitDy=0;" parent="1" source="5GwjnMJBXJCPQI6X2M8O-12" target="5GwjnMJBXJCPQI6X2M8O-5" edge="1">
          <mxGeometry width="160" relative="1" as="geometry">
            <mxPoint x="350" y="450" as="sourcePoint" />
            <mxPoint x="252" y="398" as="targetPoint" />
          </mxGeometry>
        </mxCell>
        <mxCell id="5GwjnMJBXJCPQI6X2M8O-20" value="" style="endArrow=none;html=1;rounded=0;exitX=1;exitY=0.3333333333333333;exitDx=0;exitDy=0;exitPerimeter=0;" parent="1" source="5GwjnMJBXJCPQI6X2M8O-1" target="5GwjnMJBXJCPQI6X2M8O-5" edge="1">
          <mxGeometry width="50" height="50" relative="1" as="geometry">
            <mxPoint x="350" y="360" as="sourcePoint" />
            <mxPoint x="400" y="310" as="targetPoint" />
          </mxGeometry>
        </mxCell>
        <mxCell id="5GwjnMJBXJCPQI6X2M8O-21" value="&amp;lt;&amp;lt;include&amp;gt;&amp;gt;" style="html=1;verticalAlign=bottom;labelBackgroundColor=none;endArrow=open;endFill=0;dashed=1;rounded=0;entryX=0;entryY=0.5;entryDx=0;entryDy=0;exitX=1;exitY=0.5;exitDx=0;exitDy=0;" parent="1" source="5GwjnMJBXJCPQI6X2M8O-7" target="5GwjnMJBXJCPQI6X2M8O-10" edge="1">
          <mxGeometry width="160" relative="1" as="geometry">
            <mxPoint x="680" y="280" as="sourcePoint" />
            <mxPoint x="770" y="280" as="targetPoint" />
          </mxGeometry>
        </mxCell>
        <mxCell id="FtY9KP3Cqtl8p3eMe_DS-1" value="&lt;font style=&quot;font-size: 19px;&quot;&gt;&lt;b&gt;Censor the topic&lt;/b&gt;&lt;/font&gt;" style="text;html=1;strokeColor=none;fillColor=none;align=center;verticalAlign=middle;whiteSpace=wrap;rounded=0;" parent="1" vertex="1">
          <mxGeometry x="420" y="20" width="160" height="30" as="geometry" />
        </mxCell>
      </root>
    </mxGraphModel>
  </diagram>
  <diagram id="MB-3ckHDg90Q6Ax7XJBf" name="Trang-2">
    <mxGraphModel grid="1" page="1" gridSize="10" guides="1" tooltips="1" connect="1" arrows="1" fold="1" pageScale="1" pageWidth="827" pageHeight="1169" math="0" shadow="0">
      <root>
        <mxCell id="0" />
        <mxCell id="1" parent="0" />
      </root>
    </mxGraphModel>
  </diagram>
</mxfile>
